<svg width="64" height="64" viewBox="0 0 64 64" fill="none" xmlns="http://www.w3.org/2000/svg">
<g clip-path="url(#clip0_601_2225)">
<path d="M-0.000976562 7.11111C-0.000976562 3.18375 3.18278 0 7.11013 0H56.8879C60.8153 0 63.999 3.18375 63.999 7.11111V56.8889C63.999 60.8162 60.8153 64 56.8879 64H7.11013C3.18278 64 -0.000976562 60.8162 -0.000976562 56.8889V7.11111Z" fill="white"/>
<path fill-rule="evenodd" clip-rule="evenodd" d="M15.212 40.5969L15.2101 40.596C14.2285 40.1387 13.4489 39.4514 12.8741 38.5362L12.8729 38.5344L12.8718 38.5324C12.3183 37.5888 12.0469 36.3883 12.0469 34.9403V21.2215C12.0469 19.8194 12.3186 18.6427 12.8718 17.6997L12.8723 17.6988C13.4461 16.7372 14.2249 16.0139 15.2068 15.5322C16.209 15.0285 17.3394 14.7783 18.595 14.7783H23.598C25.0602 14.7783 26.2657 15.0508 27.2044 15.607C28.1394 16.1376 28.8253 16.8872 29.258 17.8533C29.7118 18.8145 29.9362 19.9386 29.9362 21.2215V34.9403C29.9362 37.0986 29.358 38.7068 28.1716 39.7296C27.0193 40.7431 25.4896 41.2428 23.598 41.2428H18.595C17.3423 41.2428 16.2144 41.0288 15.214 40.5978L15.212 40.5969ZM26.4569 19.3734L16.62 37.8358C17.2771 38.2439 18.1074 38.4521 19.1198 38.4521H22.9682C24.3702 38.4521 25.3472 38.1054 25.9379 37.4462C26.5379 36.7529 26.8458 35.806 26.8458 34.5886V21.4325C26.8458 20.6049 26.714 19.921 26.4569 19.3734ZM15.5724 36.6982C15.2844 36.1344 15.1373 35.4336 15.1373 34.5886V21.4325C15.1373 20.195 15.4896 19.2652 16.1756 18.6199L16.1765 18.6191L16.1774 18.6182C16.8669 17.9474 17.8182 17.6042 19.0498 17.6042H23.0732C24.0625 17.6042 24.8453 17.8029 25.4344 18.1886L15.5724 36.6982Z" fill="url(#paint0_radial_601_2225)"/>
<path fill-rule="evenodd" clip-rule="evenodd" d="M36.2826 39.8442C36.1507 39.7678 36.025 39.685 35.9056 39.5958L35.9037 39.5943L35.9018 39.5929C35.0754 38.933 34.6572 38.0823 34.6572 37.0509C34.6572 36.0835 34.9348 35.3041 35.5046 34.7312L35.5057 34.7301L35.5068 34.729C36.0083 34.2458 36.6745 33.8939 37.4981 33.668C36.8035 33.3328 36.2397 32.9096 35.8109 32.3964L35.81 32.3953L35.8091 32.3942C35.3081 31.7706 34.9599 31.1079 34.7674 30.4064L34.7671 30.4051C34.5773 29.6897 34.4823 28.9735 34.4823 28.2568C34.4823 26.7843 34.7774 25.5809 35.3809 24.6586C35.9825 23.7392 36.8365 23.0756 37.9361 22.6669L37.9371 22.6666C39.0527 22.2609 40.353 22.0599 41.8351 22.0599H51.9518V23.9242L48.0057 24.2549C48.229 24.4309 48.4672 24.6383 48.7202 24.8767C49.1141 25.224 49.4392 25.7248 49.7007 26.3692C49.9922 27.0061 50.1325 27.8735 50.1325 28.9603C50.1325 29.9436 49.9178 30.8797 49.4888 31.7669C49.0777 32.6655 48.3786 33.4013 47.4015 33.9763L47.4003 33.977L47.3992 33.9777C46.4125 34.5342 45.0666 34.8055 43.3745 34.8055H40.4007C39.4339 34.8055 38.6785 34.9563 38.1239 35.2462L38.1229 35.2468L38.1218 35.2473C37.8666 35.3756 37.6795 35.5546 37.5549 35.7844C37.4294 36.0157 37.3628 36.3067 37.3628 36.664C37.3628 37.1841 37.5525 37.528 37.9175 37.7319C38.3164 37.9546 38.7352 38.0652 39.1762 38.0652H45.3687C46.8256 38.0652 48.0351 38.254 48.991 38.6383C49.9714 39.0232 50.7093 39.6161 51.1946 40.42C51.7032 41.2003 51.9518 42.1913 51.9518 43.3827V44.1566C51.9518 45.9055 51.3541 47.286 50.1503 48.2791C48.9703 49.2953 47.2162 49.7907 44.9138 49.7907H39.701C38.4748 49.7907 37.3844 49.613 36.4322 49.2541C35.4992 48.9172 34.7524 48.3857 34.1975 47.6579L34.197 47.6573C33.6609 46.9467 33.3977 46.0578 33.3977 45.0008V44.1566C33.3977 43.0498 33.6975 42.113 34.3047 41.356L34.3055 41.3549L34.3064 41.3538C34.8479 40.7047 35.5072 40.2014 36.2826 39.8442ZM45.0188 40.5393C46.0835 40.5393 46.888 40.6678 47.4441 40.9138L47.445 40.9142L47.446 40.9146C48.0296 41.1629 48.4322 41.5069 48.6695 41.9407C48.9118 42.3837 49.0363 42.9211 49.0363 43.5586V44.2621C49.0363 45.3716 48.6454 46.165 47.8775 46.6723L47.8759 46.6734C47.1158 47.1904 46.052 47.4573 44.6689 47.4573H40.3307C39.0645 47.4573 38.0813 47.214 37.3669 46.7426L37.3656 46.7417L37.3642 46.7409C36.6722 46.306 36.3132 45.564 36.3132 44.4732V43.6993C36.3132 42.9502 36.4933 42.3512 36.8419 41.8903C37.2207 41.4204 37.6988 41.085 38.2793 40.883L38.2816 40.8821L38.2839 40.8813C38.8724 40.6537 39.5076 40.5393 40.1908 40.5393H45.0188ZM46.7801 26.2166L46.7786 26.2137C46.4664 25.6083 46.0244 25.1881 45.4518 24.9445L45.4496 24.9436L45.4475 24.9426C44.8635 24.6716 44.1853 24.5339 43.4095 24.5339H41.4153C40.1069 24.5339 39.0929 24.8339 38.3568 25.4171L38.3563 25.4175C37.6612 25.9634 37.2928 26.94 37.2928 28.3975C37.2928 29.8313 37.6264 30.8388 38.261 31.4561C38.9273 32.0581 39.8332 32.3666 40.9954 32.3666H43.0946C44.2738 32.3666 45.1411 32.1915 45.7149 31.859C46.3214 31.4974 46.7283 31.0401 46.9476 30.4888C47.1734 29.9212 47.287 29.3066 47.287 28.6437C47.287 27.6023 47.114 26.7985 46.7818 26.2194L46.7801 26.2166Z" fill="url(#paint1_radial_601_2225)"/>
</g>
<defs>
<radialGradient id="paint0_radial_601_2225" cx="0" cy="0" r="1" gradientUnits="userSpaceOnUse" gradientTransform="translate(31.9993 32.2845) rotate(90) scale(17.5062 19.9525)">
<stop stop-color="#671E73"/>
<stop offset="1" stop-color="#2F1E73"/>
</radialGradient>
<radialGradient id="paint1_radial_601_2225" cx="0" cy="0" r="1" gradientUnits="userSpaceOnUse" gradientTransform="translate(31.9993 32.2845) rotate(90) scale(17.5062 19.9525)">
<stop stop-color="#671E73"/>
<stop offset="1" stop-color="#2F1E73"/>
</radialGradient>
<clipPath id="clip0_601_2225">
<rect width="64" height="64" fill="white" transform="translate(-0.000976562)"/>
</clipPath>
</defs>
</svg>
