<svg width="58" height="52" viewBox="0 0 58 52" fill="none" xmlns="http://www.w3.org/2000/svg">
<path fill-rule="evenodd" clip-rule="evenodd" d="M6.12537 37.557L6.12275 37.5557C4.78522 36.9232 3.72293 35.9726 2.93965 34.7069L2.93803 34.7043L2.93649 34.7016C2.18228 33.3965 1.8125 31.7361 1.8125 29.7335V10.7595C1.8125 8.82034 2.18282 7.19288 2.93649 5.88865L2.93726 5.88733C3.71915 4.55741 4.78032 3.55707 6.11831 2.89078C7.48386 2.19416 9.02423 1.84814 10.7351 1.84814H17.5522C19.5447 1.84814 21.1872 2.22494 22.4663 2.99423C23.7404 3.72813 24.675 4.76492 25.2646 6.10105C25.883 7.4305 26.1888 8.9852 26.1888 10.7595V29.7335C26.1888 32.7186 25.4008 34.9428 23.7842 36.3574C22.2141 37.7591 20.1297 38.4502 17.5522 38.4502H10.7351C9.02806 38.4502 7.4912 38.1543 6.12802 37.5581L6.12537 37.557ZM21.4478 8.20343L8.04393 33.7381C8.93931 34.3025 10.0707 34.5906 11.4502 34.5906H16.6941C18.6045 34.5906 19.9358 34.111 20.7406 33.1993C21.5582 32.2405 21.9778 30.9308 21.9778 29.247V11.0514C21.9778 9.90676 21.7981 8.96085 21.4478 8.20343ZM6.61639 32.1648C6.22398 31.385 6.02353 30.4157 6.02353 29.247V11.0514C6.02353 9.33983 6.50363 8.05379 7.43842 7.16134L7.43965 7.16017L7.44086 7.15898C8.38027 6.23119 9.67657 5.75648 11.3548 5.75648H16.8371C18.1852 5.75648 19.2518 6.03137 20.0546 6.56485L6.61639 32.1648Z" fill="#F5F3FC"/>
<path fill-rule="evenodd" clip-rule="evenodd" d="M34.8364 36.5158C34.6567 36.4102 34.4855 36.2957 34.3227 36.1723L34.3201 36.1703L34.3176 36.1683C33.1914 35.2556 32.6216 34.0791 32.6216 32.6526C32.6216 31.3146 32.9999 30.2366 33.7763 29.4442L33.7778 29.4427L33.7793 29.4412C34.4626 28.7729 35.3705 28.2863 36.4927 27.9738C35.5463 27.5102 34.778 26.925 34.1937 26.2151L34.1925 26.2136L34.1913 26.212C33.5086 25.3495 33.0341 24.433 32.7718 23.4627L32.7714 23.4611C32.5128 22.4716 32.3833 21.481 32.3833 20.4898C32.3833 18.4532 32.7855 16.7888 33.6078 15.5132C34.4275 14.2417 35.5912 13.3238 37.0896 12.7586L37.0909 12.7581C38.6111 12.197 40.3828 11.919 42.4023 11.919H56.1875V14.4975L50.8104 14.9548C51.1148 15.1983 51.4394 15.4852 51.7841 15.8149C52.3208 16.2952 52.7638 16.9879 53.1201 17.8791C53.5174 18.76 53.7086 19.9596 53.7086 21.4628C53.7086 22.8227 53.4159 24.1174 52.8313 25.3444C52.2712 26.5873 51.3186 27.6049 49.9872 28.4003L49.9856 28.4012L49.984 28.4021C48.6396 29.1718 46.8056 29.547 44.4999 29.547H40.4478C39.1305 29.547 38.1012 29.7556 37.3454 30.1566L37.344 30.1574L37.3426 30.1581C36.9948 30.3356 36.7399 30.5831 36.5701 30.9009C36.3991 31.2208 36.3083 31.6232 36.3083 32.1174C36.3083 32.8369 36.5668 33.3124 37.0642 33.5944C37.6077 33.9025 38.1784 34.0554 38.7793 34.0554H47.2172C49.2025 34.0554 50.8505 34.3165 52.1531 34.8481C53.489 35.3804 54.4945 36.2004 55.1557 37.3122C55.8487 38.3914 56.1875 39.7621 56.1875 41.4099V42.4802C56.1875 44.899 55.3731 46.8084 53.7328 48.1819C52.1249 49.5874 49.7347 50.2725 46.5975 50.2725H39.4944C37.8236 50.2725 36.3378 50.0267 35.0403 49.5304C33.769 49.0645 32.7514 48.3293 31.9952 47.3227L31.9946 47.3219C31.2641 46.3392 30.9054 45.1097 30.9054 43.6478V42.4802C30.9054 40.9495 31.3139 39.6538 32.1413 38.6068L32.1425 38.6053L32.1437 38.6038C32.8815 37.706 33.7799 37.0099 34.8364 36.5158ZM46.7405 37.4772C48.1912 37.4772 49.2875 37.655 50.0452 37.9952L50.0465 37.9958L50.0478 37.9964C50.843 38.3397 51.3916 38.8155 51.715 39.4155C52.0452 40.0282 52.2148 40.7715 52.2148 41.6531V42.6262C52.2148 44.1607 51.6821 45.258 50.6359 45.9596L50.6336 45.9612C49.5979 46.6762 48.1484 47.0453 46.2638 47.0453H40.3524C38.6271 47.0453 37.2873 46.7088 36.314 46.0569L36.3121 46.0556L36.3103 46.0545C35.3673 45.453 34.8781 44.4267 34.8781 42.9181V41.8477C34.8781 40.8118 35.1235 39.9832 35.5985 39.3457C36.1147 38.6959 36.7662 38.232 37.5571 37.9526L37.5603 37.9515L37.5634 37.9502C38.3653 37.6355 39.2308 37.4772 40.1618 37.4772H46.7405ZM49.1405 17.668L49.1384 17.664C48.713 16.8267 48.1108 16.2455 47.3305 15.9086L47.3276 15.9073L47.3247 15.906C46.5289 15.5311 45.6047 15.3408 44.5476 15.3408H41.8303C40.0475 15.3408 38.6658 15.7557 37.6627 16.5623L37.6621 16.5628C36.715 17.3179 36.2129 18.6685 36.2129 20.6844C36.2129 22.6675 36.6676 24.0608 37.5322 24.9147C38.4401 25.7472 39.6745 26.1739 41.2582 26.1739H44.1185C45.7253 26.1739 46.9072 25.9317 47.689 25.4718C48.5154 24.9718 49.0699 24.3392 49.3687 23.5768C49.6764 22.7917 49.8312 21.9417 49.8312 21.0249C49.8312 19.5845 49.5954 18.4728 49.1427 17.672L49.1405 17.668Z" fill="#F5F3FC"/>
</svg>
