<svg fill="none" xmlns="http://www.w3.org/2000/svg" viewBox="0 0 54 220"><path d="M54 220c-8.064 0-14.472-1.115-19.224-3.346-4.608-2.091-8.064-4.949-10.368-8.574-2.16-3.486-3.6-7.389-4.32-11.711a90.378 90.378 0 0 1-.864-12.339v-59.6c0-3.346-1.008-6.204-3.024-8.574-2.016-2.371-4.536-4.113-7.56-5.229-2.88-1.254-5.76-1.742-8.64-1.463v-5.647c2.448-.279 5.184-.836 8.208-1.673 3.024-.836 5.616-2.3 7.776-4.391 2.304-2.092 3.456-5.159 3.456-9.202V38.897c0-6.692.864-12.965 2.592-18.821 1.872-5.995 5.256-10.805 10.152-14.43C37.224 1.882 44.496 0 54 0v4.6c-6.336 0-11.736 1.116-16.2 3.347-4.32 2.091-7.632 5.646-9.936 10.665-2.16 4.88-3.24 11.642-3.24 20.285v49.354c0 5.019-1.728 9.132-5.184 12.338-3.456 3.068-7.488 4.95-12.096 5.647 4.608.557 8.568 2.509 11.88 5.855 3.456 3.207 5.184 7.041 5.184 11.502v60.437c0 12.13 2.448 20.355 7.344 24.677 5.04 4.462 12.456 6.692 22.248 6.692V220Z" fill="#5335CA"/></svg>