<svg fill="none" xmlns="http://www.w3.org/2000/svg" viewBox="0 0 42 220"><path d="M30.71 220c-6.774 0-12.27-1.255-16.484-3.764-4.065-2.51-7.15-5.716-9.258-9.62a41.713 41.713 0 0 1-4.065-11.92C.301 190.653 0 187.098 0 184.03V35.97c0-3.207.301-6.832.903-10.875.753-4.043 2.108-7.947 4.065-11.711 2.107-3.904 5.193-7.11 9.258-9.62C18.44 1.254 23.936 0 30.71 0H42v4.6H30.71c-7.377 0-13.473 2.44-18.29 7.32-4.667 4.88-7 12.896-7 24.05v148.06c0 5.717.752 10.945 2.257 15.685 1.656 4.74 4.366 8.504 8.13 11.293 3.763 2.927 8.73 4.391 14.903 4.391H42V220H30.71Z" fill="#B5B3C2"/></svg>