
<svg width="220" height="220" viewBox="0 0 220 220" fill="none" xmlns="http://www.w3.org/2000/svg">
<path d="M110 13.75C56.8477 13.75 13.75 56.8477 13.75 110C13.75 163.152 56.8477 206.25 110 206.25C163.152 206.25 206.25 163.152 206.25 110C206.25 56.8477 163.152 13.75 110 13.75ZM151.572 78.5684L106.326 141.303C105.694 142.185 104.86 142.905 103.894 143.401C102.928 143.897 101.858 144.156 100.772 144.156C99.6866 144.156 98.6165 143.897 97.6506 143.401C96.6848 142.905 95.8511 142.185 95.2188 141.303L68.4277 104.178C67.6113 103.039 68.4277 101.449 69.8242 101.449H79.9004C82.0918 101.449 84.1758 102.502 85.4648 104.307L100.762 125.533L134.535 78.6973C135.824 76.9141 137.887 75.8398 140.1 75.8398H150.176C151.572 75.8398 152.389 77.4297 151.572 78.5684Z" fill="#35CA71"/>
</svg>
